<svg xmlns="http://www.w3.org/2000/svg" width="42.741" height="42.74" viewBox="0 0 42.741 42.74">
  <path id="facebook-icon" d="M20.871,41.74a20.876,20.876,0,0,1-8.124-40.1A20.875,20.875,0,0,1,28.994,40.1,20.734,20.734,0,0,1,20.871,41.74Zm-3.3-20.811V33.29h4.944V20.929h3.67l.178-1.941.273-3h-3.93V14.009a1.165,1.165,0,0,1,.378-.955,1.151,1.151,0,0,1,.716-.232h2.773V8.585l-3.819-.016c-3.836,0-5.2,2.677-5.2,5.182v2.235H15.1v4.943Z" transform="translate(0.5 0.5)" fill="#fff" stroke="rgba(0,0,0,0)" stroke-width="1"/>
</svg>
