<svg xmlns="http://www.w3.org/2000/svg" xmlns:xlink="http://www.w3.org/1999/xlink" width="477" height="830" viewBox="0 0 477 830">
  <defs>
    <clipPath id="clip-path">
      <rect id="Rectangle_227" data-name="Rectangle 227" width="477" height="830" transform="translate(0 5054)" fill="#fff"/>
    </clipPath>
  </defs>
  <g id="Mask_Group_1" data-name="Mask Group 1" transform="translate(0 -5054)" clip-path="url(#clip-path)">
    <path id="Subtraction_5" data-name="Subtraction 5" d="M414,828a420.647,420.647,0,0,1-42.329-2.137,415.045,415.045,0,0,1-41.106-6.274c-13.338-2.729-26.687-6.162-39.676-10.2-12.844-3.995-25.642-8.679-38.037-13.922A415.208,415.208,0,0,1,32.534,575.148c-5.243-12.4-9.927-25.192-13.922-38.037-4.04-12.989-7.472-26.337-10.2-39.676a415.041,415.041,0,0,1-6.274-41.106,420.212,420.212,0,0,1,0-84.658,415.041,415.041,0,0,1,6.274-41.106c2.729-13.338,6.162-26.687,10.2-39.676,3.995-12.844,8.679-25.642,13.922-38.037A415.208,415.208,0,0,1,252.852,32.534c12.4-5.243,25.192-9.927,38.037-13.922,12.989-4.04,26.337-7.472,39.676-10.2a415.041,415.041,0,0,1,41.106-6.274,420.212,420.212,0,0,1,84.658,0,415.041,415.041,0,0,1,41.106,6.274c13.338,2.729,26.687,6.162,39.676,10.2,12.844,3.995,25.642,8.679,38.037,13.922A415.208,415.208,0,0,1,795.466,252.852c5.243,12.4,9.927,25.192,13.922,38.037,4.04,12.989,7.472,26.337,10.2,39.676a415.045,415.045,0,0,1,6.274,41.106,420.214,420.214,0,0,1,0,84.658,415.045,415.045,0,0,1-6.274,41.106c-2.729,13.338-6.162,26.687-10.2,39.676-3.995,12.844-8.679,25.642-13.922,38.037A415.209,415.209,0,0,1,575.148,795.466c-12.4,5.243-25.192,9.927-38.037,13.922-12.989,4.04-26.337,7.472-39.676,10.2a415.045,415.045,0,0,1-41.106,6.274A420.647,420.647,0,0,1,414,828Zm0-702c-158.8,0-288,129.2-288,288S255.2,702,414,702,702,572.8,702,414,572.8,126,414,126Z" transform="translate(-351 5056)" fill="green" opacity="0.1"/>
  </g>
</svg>
