<svg xmlns="http://www.w3.org/2000/svg" width="1365.999" height="178.02" viewBox="0 0 1365.999 178.02">
  <g id="section-5-3" transform="translate(-0.001 -22)" fill="green">
    <path d="M 1365.49951171875 199.5196075439453 L 821.192626953125 199.5196075439453 C 823.9512329101563 197.3139495849609 826.493896484375 194.8326568603516 828.7659301757813 192.1277770996094 C 831.3656005859375 189.0329437255859 833.6114501953125 185.6442718505859 835.4412841796875 182.0561065673828 C 837.304443359375 178.4024353027344 838.7396240234375 174.5337677001953 839.7070922851563 170.5577697753906 C 840.7029418945313 166.4651031494141 841.2079467773438 162.2364349365234 841.2079467773438 157.9896087646484 L 841.2079467773438 102.591926574707 C 842.443115234375 89.75776672363281 848.3872680664063 77.88010406494141 857.9474487304688 69.14360809326172 C 867.5753173828125 60.34527206420898 880.0657958984375 55.49993896484375 893.1177978515625 55.49993896484375 C 906.1681518554688 55.49993896484375 918.6575927734375 60.3446044921875 928.2854614257813 69.14176940917969 C 937.8444213867188 77.87677001953125 943.7886352539063 89.75345611572266 945.0247802734375 102.5874481201172 L 945.0247802734375 140.9894409179688 C 945.0247802734375 170.2964324951172 968.8677978515625 194.1394348144531 998.1748046875 194.1394348144531 C 1027.481811523438 194.1394348144531 1051.324829101563 170.2964324951172 1051.324829101563 140.9894409179688 L 1051.324829101563 116.5914459228516 C 1052.560913085938 103.7562866210938 1058.505004882813 91.87893676757813 1068.064086914063 83.14393615722656 C 1077.69091796875 74.34510803222656 1090.1806640625 69.49943542480469 1103.232666015625 69.49943542480469 C 1116.282470703125 69.49943542480469 1128.771606445313 74.34410858154297 1138.3994140625 83.14127349853516 C 1147.958984375 91.87560272216797 1153.903564453125 103.7511367797852 1155.140502929688 116.5834655761719 L 1155.140502929688 140.9894409179688 C 1155.140502929688 170.2964324951172 1178.9833984375 194.1394348144531 1208.290649414063 194.1394348144531 C 1237.59814453125 194.1394348144531 1261.44140625 170.2964324951172 1261.44140625 140.9894409179688 L 1261.44140625 132.5917663574219 C 1262.676635742188 119.7575988769531 1268.620849609375 107.8799362182617 1278.180786132813 99.14327239990234 C 1287.807983398438 90.34494018554688 1300.297607421875 85.49960327148438 1313.349487304688 85.49960327148438 C 1320.389282226563 85.49960327148438 1327.218994140625 86.87827301025391 1333.6484375 89.59743499755859 C 1339.859008789063 92.22444152832031 1345.436157226563 95.98477172851563 1350.225341796875 100.7737731933594 C 1355.015502929688 105.5641021728516 1358.775756835938 111.1412734985352 1361.401611328125 117.3504409790039 C 1364.120849609375 123.7781066894531 1365.49951171875 130.6076049804688 1365.49951171875 137.6496124267578 L 1365.49951171875 199.5196075439453 Z M 754.9237060546875 199.5196075439453 L 611.0762939453125 199.5196075439453 C 613.8348999023438 197.3139495849609 616.3777465820313 194.8326568603516 618.6497802734375 192.1277770996094 C 621.2496337890625 189.0329437255859 623.49560546875 185.6442718505859 625.3253173828125 182.0561065673828 C 627.1885986328125 178.4024353027344 628.6239624023438 174.5337677001953 629.5914306640625 170.5577697753906 C 630.5872802734375 166.4651031494141 631.09228515625 162.2364349365234 631.09228515625 157.9896087646484 L 631.09228515625 153.5712280273438 C 632.3336181640625 140.7432250976563 638.2786254882813 128.8717803955078 647.8342895507813 120.1402740478516 C 657.4624633789063 111.3437728881836 669.9515991210938 106.4992752075195 683.0009765625 106.4992752075195 C 696.05029296875 106.4992752075195 708.538818359375 111.3437728881836 718.1659545898438 120.1402740478516 C 727.7254638671875 128.8747711181641 733.6701049804688 140.7501373291016 734.9071044921875 153.5824737548828 L 734.9071044921875 157.9896087646484 C 734.9071044921875 162.2364349365234 735.412109375 166.4651031494141 736.4081420898438 170.5577697753906 C 737.3756103515625 174.5337677001953 738.8109741210938 178.4024353027344 740.67431640625 182.0561065673828 C 742.504150390625 185.6442718505859 744.7501220703125 189.0329437255859 747.3499755859375 192.1277770996094 C 749.6221313476563 194.8326568603516 752.1649780273438 197.3139495849609 754.9237060546875 199.5196075439453 Z M 544.8078002929688 199.5196075439453 L 182.2662811279297 199.5196075439453 L 0.5009554028511047 199.5196075439453 L 0.5009554028511047 137.6496124267578 C 0.5009554028511047 130.6074371337891 1.879622101783752 123.7777709960938 4.598621845245361 117.3506088256836 C 7.224788665771484 111.1409378051758 10.98512172698975 105.5637741088867 15.77495574951172 100.7737731933594 C 20.56395530700684 95.98477172851563 26.14128875732422 92.22460174560547 32.35178756713867 89.59743499755859 C 38.78128814697266 86.87827301025391 45.61095428466797 85.49960327148438 52.65095520019531 85.49960327148438 C 65.69979095458984 85.49960327148438 78.18862152099609 90.34410858154297 87.81695556640625 99.14060211181641 C 97.37628173828125 107.8749389648438 103.3209533691406 119.7504730224609 104.5579528808594 132.5827941894531 L 104.5579528808594 140.9894409179688 C 104.5579528808594 170.2964324951172 128.4009552001953 194.1394348144531 157.7079620361328 194.1394348144531 C 187.0159606933594 194.1394348144531 210.8597869873047 170.2964324951172 210.8597869873047 140.9894409179688 L 210.8597869873047 116.5914306640625 C 212.0951232910156 103.7564392089844 218.0387878417969 91.87910461425781 227.5981292724609 83.14393615722656 C 237.2259521484375 74.34510803222656 249.7157897949219 69.49943542480469 262.7667846679688 69.49943542480469 C 275.8182983398438 69.49943542480469 288.3082885742188 74.34510803222656 297.9361267089844 83.14393615722656 C 307.4952697753906 91.87893676757813 313.4393005371094 103.7562866210938 314.6754455566406 116.5914459228516 L 314.6754455566406 140.9894409179688 C 314.6754455566406 170.2964324951172 338.5184631347656 194.1394348144531 367.8254699707031 194.1394348144531 C 397.1324462890625 194.1394348144531 420.9754638671875 170.2964324951172 420.9754638671875 140.9894409179688 L 420.9754638671875 69.60054779052734 C 422.2081298828125 56.76355361938477 428.1509704589844 44.88376998901367 437.7113037109375 36.14577102661133 C 447.3394470214844 27.34593963623047 459.8304443359375 22.49960517883301 472.8834533691406 22.49960517883301 C 485.9356079101563 22.49960517883301 498.4256286621094 27.34493827819824 508.0527954101563 36.14327239990234 C 517.61279296875 44.87893676757813 523.5569458007813 56.7566032409668 524.7922973632813 69.59175872802734 L 524.7922973632813 157.9896087646484 C 524.7922973632813 162.2366027832031 525.2973022460938 166.4651031494141 526.2931518554688 170.5577697753906 C 527.2606201171875 174.5337677001953 528.69580078125 178.4024353027344 530.5589599609375 182.0561065673828 C 532.3887939453125 185.6442718505859 534.6346435546875 189.0329437255859 537.2343139648438 192.1277770996094 C 539.50634765625 194.8326568603516 542.0491943359375 197.3139495849609 544.8078002929688 199.5196075439453 Z" stroke="none"/>
    <path d="M 1364.99951171875 199.0196075439453 L 1364.99951171875 137.6496124267578 C 1364.99951171875 130.6749420166016 1363.634155273438 123.9109420776367 1360.941162109375 117.5452728271484 C 1358.340454101563 111.3956069946289 1354.616088867188 105.871940612793 1349.87158203125 101.12744140625 C 1345.128295898438 96.38394165039063 1339.6044921875 92.65977478027344 1333.453735351563 90.05793762207031 C 1327.086181640625 87.36510467529297 1320.321899414063 85.99960327148438 1313.349487304688 85.99960327148438 C 1300.422729492188 85.99960327148438 1288.052734375 90.79843902587891 1278.51806640625 99.51227569580078 C 1269.055297851563 108.1600341796875 1263.169555664063 119.9151458740234 1261.94140625 132.6169738769531 L 1261.94140625 140.9894409179688 C 1261.94140625 170.5721130371094 1237.873779296875 194.6394348144531 1208.290649414063 194.6394348144531 C 1178.707763671875 194.6394348144531 1154.640502929688 170.5721130371094 1154.640502929688 140.9894409179688 L 1154.640502929688 116.6088790893555 C 1153.410766601563 103.9088821411133 1147.5244140625 92.15586853027344 1138.062255859375 83.51026916503906 C 1128.526611328125 74.79777526855469 1116.157348632813 69.99943542480469 1103.232666015625 69.99943542480469 C 1090.305786132813 69.99943542480469 1077.935791015625 74.79860687255859 1068.401245117188 83.512939453125 C 1058.939697265625 92.15903472900391 1053.053833007813 103.9138488769531 1051.824829101563 116.6166687011719 L 1051.824829101563 140.9894409179688 C 1051.824829101563 170.5721130371094 1027.757446289063 194.6394348144531 998.1748046875 194.6394348144531 C 968.5921020507813 194.6394348144531 944.5247802734375 170.5721130371094 944.5247802734375 140.9894409179688 L 944.5247802734375 102.6128540039063 C 943.2957153320313 89.91119384765625 937.409912109375 78.15686798095703 927.9483032226563 69.51077270507813 C 918.41259765625 60.79827117919922 906.04296875 55.99993896484375 893.1177978515625 55.99993896484375 C 880.1909790039063 55.99993896484375 867.8203125 60.79877090454102 858.2847900390625 69.51260375976563 C 848.822021484375 78.16036987304688 842.93603515625 89.91531372070313 841.7079467773438 102.6171417236328 L 841.7079467773438 157.9896087646484 C 841.7079467773438 162.2762756347656 841.1983032226563 166.5446014404297 840.1929321289063 170.6759338378906 C 839.21630859375 174.6897735595703 837.7674560546875 178.5949401855469 835.8865966796875 182.2832794189453 C 834.039794921875 185.9051055908203 831.7727661132813 189.325439453125 829.1488037109375 192.4494323730469 C 827.1566162109375 194.8212280273438 824.9578247070313 197.0229034423828 822.5894165039063 199.0196075439453 L 1364.99951171875 199.0196075439453 M 753.5269165039063 199.0196075439453 C 751.158447265625 197.0229034423828 748.95947265625 194.8212280273438 746.9671020507813 192.4494323730469 C 744.3429565429688 189.3256072998047 742.075927734375 185.9051055908203 740.228759765625 182.2832794189453 C 738.3479614257813 178.5949401855469 736.89892578125 174.6897735595703 735.9223022460938 170.6759338378906 C 734.9169311523438 166.5446014404297 734.4071044921875 162.2762756347656 734.4071044921875 157.9896087646484 L 734.4071044921875 153.6078796386719 C 733.17724609375 140.9078826904297 727.2907104492188 129.1548767089844 717.8287963867188 120.5092697143555 C 708.2937622070313 111.7972717285156 695.9251098632813 106.9992752075195 683.0009765625 106.9992752075195 C 670.0765991210938 106.9992752075195 657.707275390625 111.7972717285156 648.1714477539063 120.5092697143555 C 638.7137451171875 129.1513519287109 632.8269653320313 140.9002380371094 631.59228515625 153.5950164794922 L 631.59228515625 157.9896087646484 C 631.59228515625 162.2762756347656 631.0826416015625 166.5446014404297 630.0772705078125 170.6759338378906 C 629.1004638671875 174.6897735595703 627.651611328125 178.5949401855469 625.7708129882813 182.2832794189453 C 623.9237670898438 185.9051055908203 621.6567993164063 189.325439453125 619.0325927734375 192.4494323730469 C 617.0404052734375 194.8212280273438 614.841552734375 197.0229034423828 612.4730834960938 199.0196075439453 L 753.5269165039063 199.0196075439453 M 543.4110107421875 199.0196075439453 C 541.0425415039063 197.0229034423828 538.84375 194.8212280273438 536.8514404296875 192.4494323730469 C 534.2274780273438 189.325439453125 531.96044921875 185.9051055908203 530.1134643554688 182.2832794189453 C 528.2327880859375 178.5949401855469 526.783935546875 174.6897735595703 525.8073120117188 170.6759338378906 C 524.8019409179688 166.5446014404297 524.2922973632813 162.2762756347656 524.2922973632813 157.9896087646484 L 524.2922973632813 69.61697387695313 C 523.0640258789063 56.91414642333984 517.17822265625 45.15903854370117 507.7154541015625 36.51227188110352 C 498.1807861328125 27.79843902587891 485.8104553222656 22.99960517883301 472.8834533691406 22.99960517883301 C 459.9556274414063 22.99960517883301 447.5844421386719 27.7994384765625 438.0486145019531 36.51493835449219 C 428.585693359375 45.16386795043945 422.7010192871094 56.92104721069336 421.4754638671875 69.62570953369141 L 421.4754638671875 140.9894409179688 C 421.4754638671875 170.5721130371094 397.4081115722656 194.6394348144531 367.8254699707031 194.6394348144531 C 338.2427978515625 194.6394348144531 314.1754455566406 170.5721130371094 314.1754455566406 140.9894409179688 L 314.1754455566406 116.6166687011719 C 312.9463806152344 103.9138488769531 307.060546875 92.15903472900391 297.5987854003906 83.512939453125 C 288.0634460449219 74.79860687255859 275.693115234375 69.99943542480469 262.7667846679688 69.99943542480469 C 249.8407897949219 69.99943542480469 237.4707946777344 74.79860687255859 227.9352874755859 83.512939453125 C 218.4735260009766 92.15920257568359 212.5880279541016 103.9139862060547 211.3597869873047 116.6166458129883 L 211.3597869873047 140.9894409179688 C 211.3597869873047 170.5721130371094 187.2916259765625 194.6394348144531 157.7079620361328 194.6394348144531 C 128.1252899169922 194.6394348144531 104.0579528808594 170.5721130371094 104.0579528808594 140.9894409179688 L 104.0579528808594 132.6082153320313 C 102.8280639648438 119.9080505371094 96.94155883789063 108.1550369262695 87.47962188720703 99.50977325439453 C 77.94378662109375 90.797607421875 65.57462310791016 85.99960327148438 52.65095520019531 85.99960327148438 C 45.67828750610352 85.99960327148438 38.91412353515625 87.36510467529297 32.54662322998047 90.05793762207031 C 26.39562225341797 92.65977478027344 20.87178802490234 96.38410186767578 16.12862205505371 101.12744140625 C 11.3842887878418 105.8716049194336 7.660121917724609 111.3954391479492 5.059122085571289 117.5454406738281 C 2.366288661956787 123.9106063842773 1.00095546245575 130.6747741699219 1.00095546245575 137.6496124267578 L 1.00095546245575 199.0196075439453 L 182.2662811279297 199.0196075439453 L 543.4110107421875 199.0196075439453 M 1365.99951171875 200.0196075439453 C 1365.43115234375 200.0196075439453 1107.724487304688 200.0196075439453 819.7348022460938 200.0196075439453 C 832.4666137695313 190.4006042480469 840.7079467773438 175.1401062011719 840.7079467773438 157.9896087646484 L 840.7079467773438 102.5684356689453 C 841.949951171875 89.60127258300781 847.9529418945313 77.59976959228516 857.610107421875 68.77443695068359 C 867.3299560546875 59.89227294921875 879.93994140625 54.99993896484375 893.1177978515625 54.99993896484375 C 906.2937622070313 54.99993896484375 918.9027709960938 59.89143753051758 928.622802734375 68.77260589599609 C 938.27880859375 77.59627532958984 944.2817993164063 89.59677124023438 945.5247802734375 102.5639419555664 L 945.5247802734375 140.9894409179688 C 945.5247802734375 170.0207672119141 969.1434326171875 193.6394348144531 998.1748046875 193.6394348144531 C 1027.206176757813 193.6394348144531 1050.824829101563 170.0207672119141 1050.824829101563 140.9894409179688 L 1050.824829101563 116.5679397583008 C 1052.067626953125 103.6007690429688 1058.06982421875 91.59927368164063 1067.726806640625 82.77477264404297 C 1077.44580078125 73.89176940917969 1090.055786132813 68.99943542480469 1103.232666015625 68.99943542480469 C 1116.408569335938 68.99943542480469 1129.016845703125 73.89093780517578 1138.73681640625 82.77210235595703 C 1148.392822265625 91.59477233886719 1154.396728515625 103.5944366455078 1155.640502929688 116.5599365234375 L 1155.640502929688 140.9894409179688 C 1155.640502929688 170.0207672119141 1179.25927734375 193.6394348144531 1208.290649414063 193.6394348144531 C 1237.32275390625 193.6394348144531 1260.94140625 170.0207672119141 1260.94140625 140.9894409179688 L 1260.94140625 132.5682678222656 C 1262.183471679688 119.6009368896484 1268.186401367188 107.5994415283203 1277.843505859375 98.77410888671875 C 1287.5625 89.89193725585938 1300.172485351563 84.99960327148438 1313.349487304688 84.99960327148438 C 1320.457641601563 84.99960327148438 1327.352416992188 86.39193725585938 1333.84326171875 89.13694000244141 C 1340.113647460938 91.78926849365234 1345.743896484375 95.58544158935547 1350.578735351563 100.4202728271484 C 1355.414428710938 105.2559356689453 1359.210815429688 110.8862686157227 1361.862182617188 117.1557693481445 C 1364.60791015625 123.6464385986328 1365.99951171875 130.5422668457031 1365.99951171875 137.6496124267578 L 1365.99951171875 200.0196075439453 Z M 756.381591796875 200.0196075439453 C 707.4852905273438 200.0196075439453 658.2133178710938 200.0196075439453 609.6184692382813 200.0196075439453 C 622.3506469726563 190.4006042480469 630.59228515625 175.1401062011719 630.59228515625 157.9896087646484 L 630.59228515625 153.5472717285156 C 631.8404541015625 140.5862731933594 637.844482421875 128.5911102294922 647.4969482421875 119.7711029052734 C 657.2169799804688 110.8907699584961 669.825927734375 105.9992752075195 683.0009765625 105.9992752075195 C 696.17529296875 105.9992752075195 708.7843017578125 110.8907699584961 718.5032958984375 119.7711029052734 C 728.1602783203125 128.5947723388672 734.1632690429688 140.5934448242188 735.4071044921875 153.5589447021484 L 735.4071044921875 157.9896087646484 C 735.4071044921875 175.1401062011719 743.6491088867188 190.4006042480469 756.381591796875 200.0196075439453 Z M 546.265625 200.0196075439453 C 405.8598022460938 200.0196075439453 275.4158020019531 200.0196075439453 182.2662811279297 200.0196075439453 C 87.94928741455078 200.0196075439453 31.83145523071289 200.0196075439453 0.0009554036660119891 200.0196075439453 L 0.0009554036660119891 137.6496124267578 C 0.0009554036660119891 130.5422668457031 1.392288684844971 123.6464385986328 4.138122081756592 117.1557693481445 C 6.78962230682373 110.8862686157227 10.58578872680664 105.2559356689453 15.42145538330078 100.4202728271484 C 20.25628852844238 95.58544158935547 25.88678932189941 91.78926849365234 32.15695571899414 89.13694000244141 C 38.64778900146484 86.39193725585938 45.54278945922852 84.99960327148438 52.65095520019531 84.99960327148438 C 65.82595825195313 84.99960327148438 78.43412017822266 89.89110565185547 88.15412139892578 98.77143859863281 C 97.81011962890625 107.594108581543 103.8141250610352 119.5937728881836 105.0579528808594 132.5592651367188 L 105.0579528808594 61.64994049072266 L 105.0579528808594 140.9894409179688 C 105.0579528808594 170.0207672119141 128.6766204833984 193.6394348144531 157.7079620361328 193.6394348144531 C 186.7401275634766 193.6394348144531 210.3597869873047 170.0207672119141 210.3597869873047 140.9894409179688 L 210.3597869873047 116.5679397583008 C 211.6017913818359 103.6007690429688 217.6037902832031 91.59927368164063 227.2607879638672 82.77477264404297 C 236.9807891845703 73.89176940917969 249.5897827148438 68.99943542480469 262.7667846679688 68.99943542480469 C 275.9446105957031 68.99943542480469 288.553466796875 73.89176940917969 298.2734680175781 82.77477264404297 C 307.9304504394531 91.59927368164063 313.9326171875 103.6007690429688 315.1754455566406 116.5679397583008 L 315.1754455566406 107.6499404907227 L 315.1754455566406 140.9894409179688 C 315.1754455566406 170.0207672119141 338.7942810058594 193.6394348144531 367.8254699707031 193.6394348144531 C 396.8567810058594 193.6394348144531 420.4754638671875 170.0207672119141 420.4754638671875 140.9894409179688 L 420.4754638671875 69.5772705078125 C 421.7147827148438 56.60827255249023 427.7159423828125 44.60393905639648 437.3739624023438 35.77677154541016 C 447.0939636230469 26.8929386138916 459.7048034667969 21.99960517883301 472.8834533691406 21.99960517883301 C 486.061279296875 21.99960517883301 498.6711120605469 26.89193916320801 508.39013671875 35.77410507202148 C 518.0473022460938 44.59860610961914 524.05029296875 56.60093688964844 525.2922973632813 69.56827545166016 L 525.2922973632813 157.9896087646484 C 525.2922973632813 175.1401062011719 533.533447265625 190.4006042480469 546.265625 200.0196075439453 Z" stroke="none" fill="#707070"/>
  </g>
</svg>
