<svg xmlns="http://www.w3.org/2000/svg" width="1365.999" height="541.64" viewBox="0 0 1365.999 541.64">
  <path id="section-3" d="M1067.726,1110.866a52.5,52.5,0,0,1-16.9-33.8V894.65a52.65,52.65,0,0,0-105.3,0v90.43a52.655,52.655,0,0,1-104.816-.009V742.65a52.65,52.65,0,0,0-105.3,0v2.43a52.655,52.655,0,0,1-104.815,0v57.91c0,.1,0,.2,0,.3V682.65a52.65,52.65,0,1,0-105.3,0v89.421a52.654,52.654,0,0,1-104.816,0V979.99c0,.1,0,.2,0,.3V765.651a52.65,52.65,0,1,0-105.3,0v30.421a52.654,52.654,0,0,1-104.816,0V682.65a52.65,52.65,0,0,0-105.3,0v32.431A52.651,52.651,0,0,1,0,709.99V583H1366V979.99a52.652,52.652,0,0,1-105.058,5.081V907.65a52.65,52.65,0,0,0-105.3,0v169.43a52.654,52.654,0,0,1-87.915,33.786Z" transform="translate(0 -583)" fill="green"/>
</svg>
