<svg xmlns="http://www.w3.org/2000/svg" xmlns:xlink="http://www.w3.org/1999/xlink" width="362" height="603" viewBox="0 0 362 603">
  <defs>
    <clipPath id="clip-path">
      <rect id="Rectangle_227" data-name="Rectangle 227" width="362" height="603" transform="translate(0 2404)" fill="#fff" stroke="#707070" stroke-width="1"/>
    </clipPath>
  </defs>
  <g id="section-4-1" transform="translate(0 -2404)" clip-path="url(#clip-path)">
    <path id="Subtraction_45" data-name="Subtraction 45" d="M301.635,603.27a306.481,306.481,0,0,1-30.84-1.557,302.4,302.4,0,0,1-29.95-4.571c-9.718-1.989-19.444-4.489-28.907-7.433-9.358-2.911-18.682-6.323-27.713-10.143A302.515,302.515,0,0,1,23.7,419.045c-3.82-9.031-7.232-18.355-10.143-27.713-2.943-9.463-5.444-19.189-7.433-28.907a302.4,302.4,0,0,1-4.571-29.95,306.161,306.161,0,0,1,0-61.681,302.393,302.393,0,0,1,4.571-29.95c1.989-9.718,4.489-19.444,7.433-28.907,2.911-9.358,6.323-18.682,10.143-27.713A302.515,302.515,0,0,1,184.225,23.7c9.031-3.82,18.355-7.232,27.713-10.143,9.463-2.943,19.189-5.444,28.907-7.433a302.393,302.393,0,0,1,29.95-4.571,306.161,306.161,0,0,1,61.681,0,302.4,302.4,0,0,1,29.95,4.571c9.718,1.989,19.444,4.489,28.907,7.433,9.358,2.911,18.682,6.323,27.713,10.143A302.515,302.515,0,0,1,579.566,184.225c3.82,9.031,7.232,18.355,10.143,27.713,2.943,9.463,5.444,19.189,7.433,28.907a302.4,302.4,0,0,1,4.571,29.95,306.167,306.167,0,0,1,0,61.681,302.4,302.4,0,0,1-4.571,29.95c-1.989,9.718-4.489,19.444-7.433,28.907-2.911,9.358-6.323,18.682-10.143,27.713A302.516,302.516,0,0,1,419.045,579.566c-9.031,3.82-18.355,7.232-27.713,10.143-9.463,2.943-19.189,5.444-28.907,7.433a302.4,302.4,0,0,1-29.95,4.571A306.481,306.481,0,0,1,301.635,603.27Zm0-511.468C185.933,91.8,91.8,185.933,91.8,301.635s94.131,209.833,209.833,209.833,209.833-94.131,209.833-209.833S417.337,91.8,301.635,91.8Z" transform="translate(-285 2403.73)" fill="green" opacity="0.1"/>
  </g>
</svg>
