<svg xmlns="http://www.w3.org/2000/svg" width="1366.001" height="251.999" viewBox="0 0 1366.001 251.999">
  <g id="section-4" transform="translate(0.001 -2304)">
    <path id="Subtraction_41" data-name="Subtraction 41" d="M308.291,252a52.71,52.71,0,0,1-52.65-52.65v-86.43a52.655,52.655,0,0,0-104.816.009v65.421A52.71,52.71,0,0,1,98.175,231,52.8,52.8,0,0,1,46,185.43V80.688A52.921,52.921,0,0,0,0,37.679V37H46V0H466V172.74a52.653,52.653,0,0,0-105.059-4.811v31.42A52.71,52.71,0,0,1,308.291,252Z" transform="translate(899.999 2304)" fill="green"/>
    <rect id="Rectangle_181" data-name="Rectangle 181" width="960" height="38" transform="translate(-0.001 2304)" fill="green"/>
  </g>
</svg>
