<svg xmlns="http://www.w3.org/2000/svg" width="408.64" height="945.68" viewBox="0 0 408.64 945.68">
  <g id="section-5" transform="translate(-1600 -0.32)" fill="green">
    <path d="M 1686.745361328125 945.4999389648438 L 1600.500244140625 945.4999389648438 L 1600.500244140625 0.8203915357589722 L 1955.988891601563 0.8203915357589722 C 1963.029541015625 0.8203915357589722 1969.859252929688 2.199097394943237 1976.287963867188 4.918156147003174 C 1982.499145507813 7.544979572296143 1988.076293945313 11.30521488189697 1992.864868164063 16.09450912475586 C 1997.656494140625 20.88639068603516 2001.416748046875 26.46356773376465 2004.041137695313 32.67121505737305 C 2006.760864257813 39.10250854492188 2008.139892578125 45.93203735351563 2008.139892578125 52.97039031982422 C 2008.139892578125 66.02027130126953 2003.295288085938 78.50909423828125 1994.498168945313 88.13627624511719 C 1985.765869140625 97.69514465332031 1973.889526367188 103.6403350830078 1961.055541992188 104.8782730102539 L 1791.64990234375 104.8782730102539 C 1762.34228515625 104.8782730102539 1738.498901367188 128.7213287353516 1738.498901367188 158.0283966064453 C 1738.498901367188 187.3358001708984 1762.34228515625 211.1792144775391 1791.64990234375 211.1792144775391 L 1845.045654296875 211.1792144775391 C 1857.880493164063 212.4142150878906 1869.759765625 218.3581085205078 1878.4970703125 227.9175720214844 C 1887.294067382813 237.5435638427734 1892.138793945313 250.03369140625 1892.138793945313 263.0870971679688 C 1892.138793945313 276.140625 1887.29345703125 288.6304016113281 1878.495361328125 298.2556762695313 C 1869.75927734375 307.8158569335938 1857.880615234375 313.7599792480469 1845.045654296875 314.9949645996094 L 1734.649291992188 314.9949645996094 C 1705.342651367188 314.9949645996094 1681.500122070313 338.8379211425781 1681.500122070313 368.1449890136719 C 1681.500122070313 397.4520263671875 1705.342651367188 421.2949829101563 1734.649291992188 421.2949829101563 L 1748.058227539063 421.2949829101563 C 1760.890991210938 422.5347900390625 1772.7646484375 428.4789428710938 1781.495971679688 438.0342712402344 C 1790.294799804688 447.6612243652344 1795.140502929688 460.1513366699219 1795.140502929688 473.2037963867188 C 1795.140502929688 479.7388610839844 1793.946899414063 486.1120300292969 1791.592651367188 492.1461486816406 C 1789.318481445313 497.9765014648438 1786.039184570313 503.3062744140625 1781.845458984375 507.9873352050781 C 1773.343627929688 517.4752197265625 1761.729125976563 523.5144653320313 1749.140747070313 524.9947509765625 L 1674.649780273438 524.9947509765625 C 1645.3427734375 524.9947509765625 1621.499877929688 548.8377075195313 1621.499877929688 578.1447143554688 C 1621.499877929688 607.4521484375 1645.3427734375 631.2955932617188 1674.649780273438 631.2955932617188 L 1766.038452148438 631.2955932617188 L 1766.032958984375 631.410400390625 C 1778.873901367188 632.6421508789063 1790.759033203125 638.58837890625 1799.498657226563 648.1536865234375 C 1808.295776367188 657.7816772460938 1813.140502929688 670.2708740234375 1813.140502929688 683.3204956054688 C 1813.140502929688 689.7778930664063 1811.974243164063 696.0806274414063 1809.673828125 702.053466796875 C 1807.453002929688 707.822021484375 1804.244262695313 713.1112060546875 1800.136840820313 717.774169921875 C 1791.836181640625 727.1986694335938 1780.44677734375 733.3135375976563 1768.0654296875 734.9945068359375 L 1685.650512695313 734.9945068359375 C 1656.343505859375 734.9945068359375 1632.50048828125 758.837890625 1632.50048828125 788.1453247070313 C 1632.50048828125 817.452392578125 1656.343505859375 841.2953491210938 1685.650512695313 841.2953491210938 L 1690.598388671875 841.2953491210938 L 1690.586181640625 841.5256958007813 C 1703.304321289063 842.8829956054688 1715.056274414063 848.8784790039063 1723.67724609375 858.4080200195313 C 1727.922729492188 863.1019287109375 1731.243408203125 868.4545288085938 1733.546630859375 874.3168334960938 C 1735.931030273438 880.3873291015625 1737.139892578125 886.8005981445313 1737.139892578125 893.3787231445313 C 1737.139892578125 900.416259765625 1735.76123046875 907.2459106445313 1733.042114257813 913.6779174804688 C 1730.41650390625 919.8862915039063 1726.656005859375 925.4635620117188 1721.864868164063 930.254638671875 C 1717.074462890625 935.0441284179688 1711.497436523438 938.8043823242188 1705.2890625 941.4309692382813 C 1699.400756835938 943.9207763671875 1693.161865234375 945.2897338867188 1686.745361328125 945.4999389648438 Z" stroke="none"/>
    <path d="M 1686.73974609375 944.9999389648438 C 1693.0908203125 944.7905883789063 1699.26611328125 943.4349365234375 1705.09423828125 940.9705200195313 C 1711.2431640625 938.3690795898438 1716.7666015625 934.6447143554688 1721.511352539063 929.901123046875 C 1726.256713867188 925.1557006835938 1729.981201171875 919.6318969726563 1732.58154296875 913.4832153320313 C 1735.274536132813 907.1132202148438 1736.639892578125 900.34912109375 1736.639892578125 893.3787231445313 C 1736.639892578125 886.8634643554688 1735.442626953125 880.5116577148438 1733.081420898438 874.4996948242188 C 1730.800170898438 868.6936645507813 1727.511352539063 863.3925170898438 1723.306518554688 858.7434692382813 C 1714.76806640625 849.3052368164063 1703.12890625 843.3671264648438 1690.533081054688 842.0228881835938 L 1690.545288085938 841.7953491210938 L 1685.650512695313 841.7953491210938 C 1656.06787109375 841.7953491210938 1632.00048828125 817.72802734375 1632.00048828125 788.1453247070313 C 1632.00048828125 758.5621337890625 1656.06787109375 734.4945068359375 1685.650512695313 734.4945068359375 L 1768.032348632813 734.4945068359375 C 1780.281494140625 732.8231201171875 1791.547973632813 726.76953125 1799.76171875 717.4435424804688 C 1803.829833984375 712.8253173828125 1807.007690429688 707.5869750976563 1809.207275390625 701.8736572265625 C 1811.4853515625 695.9583740234375 1812.640502929688 689.7162475585938 1812.640502929688 683.3204956054688 C 1812.640502929688 670.3960571289063 1807.84228515625 658.026611328125 1799.129638671875 648.490966796875 C 1790.4736328125 639.0172119140625 1778.70263671875 633.1280517578125 1765.985229492188 631.9080200195313 L 1765.990600585938 631.7955932617188 L 1674.649780273438 631.7955932617188 C 1645.067138671875 631.7955932617188 1620.999877929688 607.7279052734375 1620.999877929688 578.1447143554688 C 1620.999877929688 548.56201171875 1645.067138671875 524.4947509765625 1674.649780273438 524.4947509765625 L 1749.111572265625 524.4947509765625 C 1761.568359375 523.023193359375 1773.058837890625 517.0438232421875 1781.47314453125 507.6536865234375 C 1785.626586914063 503.017333984375 1788.87451171875 497.7387390136719 1791.126831054688 491.9645080566406 C 1793.458251953125 485.9884033203125 1794.640502929688 479.6763916015625 1794.640502929688 473.2037963867188 C 1794.640502929688 460.2765197753906 1789.841186523438 447.9062805175781 1781.126831054688 438.37158203125 C 1772.484497070313 428.9134826660156 1760.733764648438 423.0278015136719 1748.033447265625 421.7949829101563 L 1734.649291992188 421.7949829101563 C 1705.067016601563 421.7949829101563 1681.000122070313 397.7276916503906 1681.000122070313 368.1449890136719 C 1681.000122070313 338.5622863769531 1705.067016601563 314.4949645996094 1734.649291992188 314.4949645996094 L 1845.0224609375 314.4949645996094 C 1857.724975585938 313.266845703125 1869.479248046875 307.3811645507813 1878.126342773438 297.9182739257813 C 1886.839965820313 288.3854370117188 1891.638793945313 276.0155639648438 1891.638793945313 263.0870971679688 C 1891.638793945313 250.1587371826172 1886.840576171875 237.7885131835938 1878.1279296875 228.2548675537109 C 1869.479736328125 218.7926635742188 1857.724853515625 212.9073486328125 1845.0224609375 211.6792144775391 L 1791.64990234375 211.6792144775391 C 1762.066650390625 211.6792144775391 1737.998901367188 187.611572265625 1737.998901367188 158.0283966064453 C 1737.998901367188 128.4455718994141 1762.066650390625 104.3782730102539 1791.64990234375 104.3782730102539 L 1961.032104492188 104.3782730102539 C 1973.733764648438 103.1472091674805 1985.485717773438 97.26058959960938 1994.129028320313 87.79898071289063 C 2002.841674804688 78.26427459716797 2007.639892578125 65.89521789550781 2007.639892578125 52.97039031982422 C 2007.639892578125 45.99933242797852 2006.274169921875 39.23521423339844 2003.580688476563 32.86592102050781 C 2000.9814453125 26.71792030334473 1997.257202148438 21.19415664672852 1992.51123046875 16.44803810119629 C 1987.7685546875 11.70450878143311 1982.24462890625 7.980273723602295 1976.09326171875 5.378744602203369 C 1969.726440429688 2.685803413391113 1962.962280273438 1.320391535758972 1955.988891601563 1.320391535758972 L 1601.000244140625 1.320391535758972 L 1601.000244140625 944.9999389648438 L 1686.73974609375 944.9999389648438 M 1686.754638671875 945.9999389648438 L 1600.000244140625 945.9999389648438 L 1600.000244140625 0.3203915357589722 L 1955.988891601563 0.3203915357589722 C 1963.098022460938 0.3203915357589722 1969.992919921875 1.712744474411011 1976.482788085938 4.457685470581055 C 1982.752197265625 7.109097480773926 1988.384399414063 10.90615653991699 1993.218383789063 15.74098014831543 C 1998.053100585938 20.57580375671387 2001.851196289063 26.20709800720215 2004.501708984375 32.47650909423828 C 2007.246704101563 38.96733093261719 2008.639892578125 45.86227416992188 2008.639892578125 52.97039031982422 C 2008.639892578125 66.14556884765625 2003.748291015625 78.75450897216797 1994.8671875 88.47357177734375 C 1986.045288085938 98.13063049316406 1974.044799804688 104.1335678100586 1961.080200195313 105.3782730102539 L 1791.64990234375 105.3782730102539 C 1762.618530273438 105.3782730102539 1738.998901367188 128.9969787597656 1738.998901367188 158.0283966064453 C 1738.998901367188 187.0595703125 1762.618530273438 210.6792144775391 1791.64990234375 210.6792144775391 L 1845.070190429688 210.6792144775391 C 1858.039184570313 211.9212188720703 1870.039794921875 217.92333984375 1878.866088867188 227.5802764892578 C 1887.748291015625 237.2994537353516 1892.638793945313 249.9093322753906 1892.638793945313 263.0870971679688 C 1892.638793945313 276.2640380859375 1887.748291015625 288.8739318847656 1878.864379882813 298.5929870605469 C 1870.039794921875 308.2500305175781 1858.039184570313 314.2529907226563 1845.070190429688 315.4949645996094 L 1734.649291992188 315.4949645996094 C 1705.618896484375 315.4949645996094 1682.000122070313 339.1136779785156 1682.000122070313 368.1449890136719 C 1682.000122070313 397.17626953125 1705.618896484375 420.7949829101563 1734.649291992188 420.7949829101563 L 1748.081787109375 420.7949829101563 C 1761.045288085938 422.0414428710938 1773.044189453125 428.0435791015625 1781.864990234375 437.6969909667969 C 1790.748901367188 447.4169921875 1795.640502929688 460.02685546875 1795.640502929688 473.2037963867188 C 1795.640502929688 479.8016967773438 1794.435302734375 486.2358093261719 1792.058471679688 492.3279113769531 C 1789.762573242188 498.2139282226563 1786.452392578125 503.5941467285156 1782.217895507813 508.3209838867188 C 1773.628295898438 517.90673828125 1761.893188476563 524.0061645507813 1749.169799804688 525.4947509765625 L 1674.649780273438 525.4947509765625 C 1645.618530273438 525.4947509765625 1621.999877929688 549.1134643554688 1621.999877929688 578.1447143554688 C 1621.999877929688 607.176025390625 1645.618530273438 630.7955932617188 1674.649780273438 630.7955932617188 L 1817.527587890625 630.7955932617188 C 1816.346801757813 630.8739013671875 1815.156005859375 630.91259765625 1813.989624023438 630.91259765625 L 1766.080810546875 630.91259765625 C 1779.046264648438 632.1563720703125 1791.0458984375 638.1611938476563 1799.867797851563 647.81640625 C 1808.748901367188 657.536376953125 1813.640502929688 670.1454467773438 1813.640502929688 683.3204956054688 C 1813.640502929688 689.8400268554688 1812.46240234375 696.2040405273438 1810.140380859375 702.2330932617188 C 1807.897583007813 708.058837890625 1804.657592773438 713.3984985351563 1800.512084960938 718.1046142578125 C 1792.123291015625 727.6293334960938 1780.612182617188 733.8041381835938 1768.099487304688 735.4945068359375 L 1685.650512695313 735.4945068359375 C 1656.618286132813 735.4945068359375 1633.00048828125 759.1130981445313 1633.00048828125 788.1453247070313 C 1633.00048828125 817.1766357421875 1656.618286132813 840.7953491210938 1685.650512695313 840.7953491210938 L 1729.9755859375 840.7953491210938 C 1728.323120117188 840.9501342773438 1726.6455078125 841.0285034179688 1724.989501953125 841.0285034179688 L 1690.639282226563 841.0285034179688 C 1703.482299804688 842.3991088867188 1715.345092773438 848.4525146484375 1724.048095703125 858.0726318359375 C 1728.333984375 862.8110961914063 1731.686401367188 868.2147216796875 1734.012084960938 874.134033203125 C 1736.418701171875 880.26123046875 1737.639892578125 886.7367553710938 1737.639892578125 893.3787231445313 C 1737.639892578125 900.4860229492188 1736.246704101563 907.3817749023438 1733.502685546875 913.8726196289063 C 1730.851196289063 920.1420288085938 1727.05419921875 925.7723999023438 1722.218383789063 930.608154296875 C 1717.382690429688 935.4429931640625 1711.753295898438 939.2390747070313 1705.48388671875 941.8914794921875 C 1699.530639648438 944.4087524414063 1693.238891601563 945.7883911132813 1686.754638671875 945.9999389648438 Z" stroke="none" fill="#707070"/>
  </g>
</svg>
