<svg xmlns="http://www.w3.org/2000/svg" width="414" height="828" viewBox="0 0 414 828">
  <path id="section-5-2" d="M1951.671,825.863a414.862,414.862,0,0,1-41.107-6.274c-13.338-2.729-26.686-6.161-39.675-10.2-12.845-4-25.642-8.679-38.037-13.921a415.205,415.205,0,0,1-220.318-220.318c-5.243-12.395-9.927-25.193-13.922-38.037-4.04-12.989-7.472-26.338-10.2-39.676a415.044,415.044,0,0,1-6.274-41.107,420.363,420.363,0,0,1,0-84.658,415.043,415.043,0,0,1,6.274-41.107c2.73-13.338,6.161-26.687,10.2-39.676,4-12.844,8.679-25.642,13.922-38.037A415.209,415.209,0,0,1,1832.853,32.534c12.395-5.242,25.192-9.926,38.037-13.921,12.989-4.04,26.337-7.473,39.675-10.2a414.856,414.856,0,0,1,41.107-6.274A420.607,420.607,0,0,1,1994,0V126c-158.8,0-288,129.2-288,288s129.2,288,288,288V828A420.608,420.608,0,0,1,1951.671,825.863Z" transform="translate(-1580)" fill="green" opacity="0.1"/>
</svg>
